<?xml version="1.0" standalone="no"?>
<!DOCTYPE svg PUBLIC "-//W3C//DTD SVG 20010904//EN"
 "http://www.w3.org/TR/2001/REC-SVG-20010904/DTD/svg10.dtd">
<svg version="1.0" xmlns="http://www.w3.org/2000/svg"
 width="769.000000pt" height="141.000000pt" viewBox="0 0 769.000000 141.000000"
 preserveAspectRatio="xMidYMid meet">

<g transform="translate(0.000000,141.000000) scale(0.100000,-0.100000)"
fill="#000000" stroke="none">
<path d="M5081 1088 c1 -158 4 -217 10 -184 10 64 9 405 -2 412 -5 3 -8 -100
-8 -228z"/>
<path d="M1020 1155 l0 -115 -312 -2 -313 -3 -3 -22 c-4 -29 9 -29 33 -3 18
20 28 21 304 19 325 -1 316 -4 305 81 -3 25 -1 65 4 89 11 44 7 71 -9 71 -5 0
-9 -52 -9 -115z"/>
<path d="M1282 1248 c-17 -35 -12 -1176 6 -1187 7 -4 69 -6 139 -5 110 2 129
4 141 21 11 14 13 74 10 303 -2 250 -1 288 13 308 l17 23 21 -29 c11 -17 21
-35 21 -41 0 -6 5 -11 10 -11 6 0 10 -9 10 -20 0 -11 5 -20 10 -20 6 0 10 -9
10 -20 0 -11 5 -20 10 -20 6 0 10 -6 10 -14 0 -14 40 -97 51 -106 3 -3 21 -34
40 -70 19 -36 37 -66 42 -68 4 -2 7 -12 7 -23 0 -10 4 -19 8 -19 5 0 14 -16
22 -35 l14 -35 76 0 c70 0 78 2 102 27 14 16 43 62 63 103 21 41 54 105 74
141 71 130 88 165 100 205 12 38 63 85 77 71 3 -3 5 -154 4 -336 l-1 -331 26
-10 c18 -7 33 -7 45 0 10 5 60 10 111 10 82 0 94 2 111 22 13 15 18 31 14 48
-22 98 -26 130 -22 170 14 113 17 461 5 570 -10 99 -9 128 5 208 19 109 20
164 4 180 -8 8 -56 12 -152 12 l-140 0 -33 -36 c-18 -20 -33 -44 -33 -53 0 -9
-9 -27 -20 -41 -11 -14 -20 -31 -20 -37 0 -7 -3 -13 -7 -13 -9 0 -33 -49 -33
-67 0 -7 -4 -13 -10 -13 -5 0 -10 -6 -10 -13 0 -7 -9 -23 -20 -35 -11 -12 -20
-28 -20 -36 0 -8 -3 -16 -7 -18 -5 -2 -19 -24 -32 -50 -13 -27 -28 -48 -33
-48 -4 0 -8 -7 -8 -15 0 -9 -9 -25 -20 -37 -11 -12 -20 -28 -20 -35 0 -7 -4
-13 -10 -13 -5 0 -10 -9 -10 -19 0 -11 -4 -23 -10 -26 -5 -3 -10 -14 -10 -24
0 -10 -9 -26 -19 -36 -18 -15 -24 -16 -50 -4 -18 8 -31 21 -31 31 0 10 -4 18
-8 18 -10 0 -52 77 -52 95 0 13 -38 85 -50 95 -3 3 -14 22 -24 43 -10 21 -24
41 -32 44 -8 3 -14 14 -14 24 0 10 -4 19 -8 19 -5 0 -20 21 -33 48 -13 26 -36
66 -51 89 -15 23 -28 49 -28 57 0 9 -4 16 -10 16 -5 0 -10 9 -10 19 0 32 -11
51 -30 51 -11 0 -22 5 -25 10 -4 6 -60 10 -134 10 -122 0 -128 -1 -139 -22z"/>
<path d="M7341 1103 c1 -72 4 -98 9 -78 12 46 12 185 0 185 -6 0 -10 -42 -9
-107z"/>
<path d="M4620 858 c0 -160 17 -163 20 -3 3 133 3 135 -10 135 -6 0 -10 -51
-10 -132z"/>
<path d="M5635 863 c-66 -71 -144 -153 -173 -184 -45 -49 -50 -58 -37 -69 13
-10 15 -9 15 7 0 23 249 294 298 323 29 18 44 50 24 50 -4 0 -61 -57 -127
-127z"/>
<path d="M4307 964 c-10 -11 -8 -64 2 -64 14 0 23 37 14 55 -5 9 -12 12 -16 9z"/>
<path d="M7560 853 c0 -73 3 -103 10 -93 13 20 13 187 0 195 -6 4 -10 -32 -10
-102z"/>
<path d="M390 866 c0 -30 5 -58 10 -61 6 -4 10 17 10 54 0 34 -4 61 -10 61 -5
0 -10 -24 -10 -54z"/>
<path d="M6245 773 c-24 -6 -78 -43 -72 -49 3 -3 21 5 42 17 27 16 54 22 100
23 35 1 58 4 51 8 -12 8 -89 9 -121 1z"/>
<path d="M951 725 c1 -48 1 -49 10 -17 6 21 6 39 0 50 -8 13 -10 5 -10 -33z"/>
<path d="M3106 740 c-54 -21 -80 -40 -55 -40 8 0 19 4 25 8 5 5 27 13 49 20
22 6 56 15 75 20 l35 10 -40 1 c-22 0 -62 -9 -89 -19z"/>
<path d="M6923 743 c9 -2 23 -2 30 0 6 3 -1 5 -18 5 -16 0 -22 -2 -12 -5z"/>
<path d="M7340 736 c0 -24 16 -27 35 -6 18 19 17 20 -8 20 -17 0 -27 -5 -27
-14z"/>
<path d="M7493 743 c9 -2 25 -2 35 0 9 3 1 5 -18 5 -19 0 -27 -2 -17 -5z"/>
<path d="M4436 715 c-22 -7 -49 -23 -60 -35 l-21 -21 42 21 c23 11 48 20 56
20 8 0 20 7 27 15 15 18 7 18 -44 0z"/>
<path d="M6146 693 c-6 -14 -5 -15 5 -6 7 7 10 15 7 18 -3 3 -9 -2 -12 -12z"/>
<path d="M6126 651 c-4 -7 -5 -15 -2 -18 9 -9 19 4 14 18 -4 11 -6 11 -12 0z"/>
<path d="M4342 638 c-15 -19 -21 -67 -26 -238 -3 -91 -2 -161 4 -170 10 -16
10 -11 16 248 1 87 6 138 14 148 7 8 11 17 8 19 -3 3 -10 0 -16 -7z"/>
<path d="M6807 629 c4 -13 8 -18 11 -10 2 7 -1 18 -6 23 -8 8 -9 4 -5 -13z"/>
<path d="M951 605 c0 -31 2 -36 9 -23 6 10 7 25 1 40 -9 20 -10 18 -10 -17z"/>
<path d="M3781 343 l-1 -273 -47 -2 -48 -1 43 -4 c24 -2 49 0 56 6 15 12 21
456 7 511 -6 23 -9 -58 -10 -237z"/>
<path d="M390 535 c0 -30 10 -32 31 -6 15 17 32 18 258 14 154 -3 247 0 258 6
13 7 -66 10 -264 11 l-283 0 0 -25z"/>
<path d="M6809 485 l-4 -30 -340 -5 c-187 -3 -338 -8 -337 -12 2 -4 6 -17 9
-28 6 -24 19 -26 31 -4 8 14 43 17 273 20 145 2 282 4 305 4 54 0 77 18 72 55
l-4 30 -5 -30z"/>
<path d="M390 396 c0 -36 5 -68 10 -71 6 -4 10 20 10 64 0 41 -4 71 -10 71 -6
0 -10 -28 -10 -64z"/>
<path d="M3224 436 c-39 -17 -60 -64 -46 -103 l10 -28 1 27 c2 74 54 117 120
101 25 -7 47 -6 71 3 33 12 31 12 -45 13 -46 0 -93 -6 -111 -13z"/>
<path d="M3428 443 c7 -3 16 -2 19 1 4 3 -2 6 -13 5 -11 0 -14 -3 -6 -6z"/>
<path d="M5128 356 l-48 -53 0 -116 0 -117 -147 0 c-139 0 -146 -1 -130 -17
15 -15 23 -16 76 -5 44 9 72 10 109 1 42 -8 56 -8 81 5 l30 16 -2 108 c-2 121
12 160 71 197 32 21 41 36 20 34 -7 -1 -34 -25 -60 -53z"/>
<path d="M1047 293 c-4 -3 -7 -52 -7 -109 l0 -102 -107 -9 -108 -8 100 -5 c55
-3 107 -2 116 2 13 6 16 27 16 123 0 63 0 115 -2 115 -1 0 -5 -3 -8 -7z"/>
<path d="M6707 194 c-46 -62 -181 -121 -322 -139 l-100 -13 79 -1 c93 -1 122
6 236 62 92 46 140 81 140 103 0 21 -13 16 -33 -12z"/>
<path d="M4317 167 c-10 -26 -9 -69 2 -86 15 -23 25 34 14 72 -7 27 -10 29
-16 14z"/>
<path d="M3437 139 c-58 -60 -172 -93 -283 -82 -42 5 -55 3 -50 -5 10 -16 179
-16 225 0 20 7 55 25 79 40 24 15 47 28 53 28 5 0 9 11 9 25 0 14 -1 25 -2 25
-2 -1 -16 -14 -31 -31z"/>
<path d="M7560 87 c-36 -17 -69 -22 -164 -25 -73 -3 -113 -8 -105 -13 19 -12
165 -11 203 1 17 5 51 16 76 24 24 7 46 19 48 25 5 15 -5 13 -58 -12z"/>
<path d="M120 62 c8 -4 92 -5 185 -2 l170 6 -185 2 c-102 1 -178 -2 -170 -6z"/>
<path d="M488 63 c7 -3 16 -2 19 1 4 3 -2 6 -13 5 -11 0 -14 -3 -6 -6z"/>
<path d="M683 63 c20 -2 54 -2 75 0 20 2 3 4 -38 4 -41 0 -58 -2 -37 -4z"/>
<path d="M3568 63 c12 -2 32 -2 45 0 12 2 2 4 -23 4 -25 0 -35 -2 -22 -4z"/>
<path d="M4017 59 c5 -5 19 -9 29 -9 10 1 72 3 137 4 173 4 155 16 -23 16
-108 0 -151 -3 -143 -11z"/>
<path d="M5462 60 c10 -7 53 -7 115 -1 l98 8 -115 1 c-79 1 -110 -2 -98 -8z"/>
<path d="M5705 60 c28 -12 75 -12 75 0 0 6 -21 10 -47 9 -36 0 -43 -3 -28 -9z"/>
<path d="M6210 50 c20 -13 73 -13 65 0 -3 6 -23 10 -43 10 -28 0 -33 -3 -22
-10z"/>
</g>
</svg>
