<?xml version="1.0" standalone="no"?>
<!DOCTYPE svg PUBLIC "-//W3C//DTD SVG 20010904//EN"
 "http://www.w3.org/TR/2001/REC-SVG-20010904/DTD/svg10.dtd">
<svg version="1.0" xmlns="http://www.w3.org/2000/svg"
 width="278.000000pt" height="141.000000pt" viewBox="0 0 278.000000 141.000000"
 preserveAspectRatio="xMidYMid meet">

<g transform="translate(0.000000,141.000000) scale(0.100000,-0.100000)"
fill="#000000" stroke="none">
<path d="M1020 1155 l0 -115 -312 -2 -313 -3 -3 -30 -4 -30 30 28 29 28 283
-2 c324 -1 313 -4 306 82 -2 26 0 67 4 90 8 44 4 69 -11 69 -5 0 -9 -52 -9
-115z"/>
<path d="M1282 1248 c-17 -35 -12 -1176 6 -1187 7 -4 69 -6 139 -5 110 2 129
4 141 21 11 14 13 74 10 303 -2 250 -1 288 13 308 l17 23 21 -29 c11 -17 21
-35 21 -41 0 -6 5 -11 10 -11 6 0 10 -9 10 -20 0 -11 5 -20 10 -20 6 0 10 -9
10 -20 0 -11 5 -20 10 -20 6 0 10 -6 10 -14 0 -14 40 -97 51 -106 3 -3 21 -34
40 -70 19 -36 37 -66 42 -68 4 -2 7 -12 7 -23 0 -10 4 -19 8 -19 5 0 14 -16
22 -35 l14 -35 76 0 c70 0 78 2 102 27 14 16 43 62 63 103 21 41 54 105 74
141 71 130 88 165 100 205 12 37 63 85 77 71 3 -2 5 -154 4 -336 l0 -331 25
-10 c18 -7 33 -7 45 0 10 5 60 10 111 10 82 0 94 2 111 22 13 15 18 31 14 48
-22 98 -26 130 -22 170 14 113 17 461 5 570 -10 99 -9 128 5 208 19 109 20
164 4 180 -8 8 -56 12 -152 12 l-140 0 -33 -36 c-18 -20 -33 -43 -33 -51 0 -8
-13 -33 -28 -56 -15 -23 -43 -72 -62 -109 -19 -38 -38 -68 -42 -68 -5 0 -8 -9
-8 -19 0 -11 -3 -21 -7 -23 -5 -2 -19 -24 -32 -50 -13 -27 -28 -48 -33 -48 -4
0 -8 -7 -8 -15 0 -9 -9 -25 -20 -37 -11 -12 -20 -28 -20 -35 0 -7 -4 -13 -10
-13 -5 0 -10 -9 -10 -19 0 -11 -4 -23 -10 -26 -5 -3 -10 -14 -10 -24 0 -10 -9
-26 -19 -36 -18 -15 -24 -16 -50 -4 -18 8 -31 21 -31 31 0 10 -4 18 -10 18 -5
0 -10 10 -10 22 0 12 -3 18 -7 15 -7 -8 -33 38 -33 59 0 13 -38 84 -50 94 -4
3 -13 19 -20 37 -8 17 -18 29 -22 27 -4 -3 -5 2 -2 10 4 11 0 16 -10 16 -9 0
-16 8 -16 20 0 11 -4 20 -8 20 -5 0 -20 21 -33 48 -13 26 -36 66 -51 89 -15
23 -28 49 -28 57 0 9 -5 16 -12 16 -6 0 -9 3 -5 6 12 12 -15 64 -33 64 -11 0
-22 5 -25 10 -4 6 -60 10 -134 10 -122 0 -128 -1 -139 -22z"/>
<path d="M390 866 c0 -30 5 -58 10 -61 6 -4 10 17 10 54 0 34 -4 61 -10 61 -5
0 -10 -24 -10 -54z"/>
<path d="M951 725 c1 -48 1 -49 10 -17 6 21 6 39 0 50 -8 13 -10 5 -10 -33z"/>
<path d="M951 605 c0 -31 2 -36 9 -23 6 10 7 25 1 40 -9 20 -10 18 -10 -17z"/>
<path d="M390 535 c0 -30 10 -32 31 -7 15 18 32 19 257 15 156 -3 248 -1 259
6 13 7 -65 10 -264 11 l-283 0 0 -25z"/>
<path d="M390 396 c0 -76 16 -98 22 -28 4 59 -1 92 -13 92 -5 0 -9 -29 -9 -64z"/>
<path d="M1047 293 c-4 -3 -7 -52 -7 -109 l0 -102 -107 -9 -108 -8 100 -5 c55
-3 107 -2 116 2 13 6 16 27 16 123 0 63 0 115 -2 115 -1 0 -5 -3 -8 -7z"/>
<path d="M120 62 c8 -4 101 -5 205 -2 l190 6 -205 2 c-113 1 -198 -2 -190 -6z"/>
<path d="M683 63 c20 -2 54 -2 75 0 20 2 3 4 -38 4 -41 0 -58 -2 -37 -4z"/>
</g>
</svg>
