<?xml version="1.0" encoding="UTF-8"?>
<svg id="Layer_1" data-name="Layer 1" xmlns="http://www.w3.org/2000/svg" version="1.1" viewBox="0 0 28 28">
  <defs>
    <style>
      .cls-1 {
        fill: #fff;
      }

      .cls-1, .cls-2 {
        stroke-width: 0px;
      }

      .cls-2 {
        fill: #0866ff;
      }
    </style>
  </defs>
  <path class="cls-2" d="M28,14.1C28,6.3,21.7,0,14,0S0,6.3,0,14.1s4.5,12.1,10.6,13.6h0s0,0,0,0h0v-9.3h-2.9v-4.3h2.9v-1.8c0-4.8,2.2-7,6.8-7s2.4.2,3,.4v3.9c-.3,0-.9,0-1.6,0-2.3,0-3.2.9-3.2,3.1v1.5h4.6l-.8,4.3h-3.8v9.6s0,0,0,0c0,0,0,0,0,0,6.9-.8,12.3-6.8,12.3-13.9Z"/>
  <path class="cls-1" d="M18.9,9.4c.7,0,1.3,0,1.6,0v-3.9c-.6-.2-2.2-.4-3-.4-4.7,0-6.8,2.2-6.8,7v1.8h-2.9v4.3h2.9v9.3h0s0,0,0,0c.7.2,1.5.3,2.2.3h2.9s0,0,0,0v-9.6h3.8l.8-4.3h-4.6v-1.5c0-2.3.9-3.1,3.2-3.1Z"/>
</svg>