<?xml version="1.0" encoding="UTF-8"?>
<svg id="Layer_1" data-name="Layer 1" xmlns="http://www.w3.org/2000/svg" xmlns:xlink="http://www.w3.org/1999/xlink" viewBox="0 0 28 28">
  <defs>
    <style>
      .cls-1 {
        fill: url(#linear-gradient);
      }

      .cls-1, .cls-2 {
        stroke-width: 0px;
      }

      .cls-2 {
        fill: #fff;
      }
    </style>
    <linearGradient id="linear-gradient" x1="7" y1="21" x2="26.8" y2="1.2" gradientUnits="userSpaceOnUse">
      <stop offset="0" stop-color="#ff9800"/>
      <stop offset=".5" stop-color="#d6005a"/>
      <stop offset="1" stop-color="#bf00a2"/>
    </linearGradient>
  </defs>
  <circle class="cls-1" cx="14" cy="14" r="14"/>
  <path class="cls-2" d="M14,7.16c2.23,0,2.49,0,3.37.05.81.04,1.26.17,1.55.29.39.15.67.33.96.62.29.29.47.57.62.96.11.29.25.74.29,1.55.04.88.05,1.14.05,3.37s0,2.49-.05,3.37c-.04.81-.17,1.26-.29,1.55-.15.39-.33.67-.62.96-.29.29-.57.47-.96.62-.29.11-.74.25-1.55.29-.88.04-1.14.05-3.37.05s-2.49,0-3.37-.05c-.81-.04-1.26-.17-1.55-.29-.39-.15-.67-.33-.96-.62-.29-.29-.47-.57-.62-.96-.11-.29-.25-.74-.29-1.55-.04-.88-.05-1.14-.05-3.37s0-2.49.05-3.37c.04-.81.17-1.26.29-1.55.15-.39.33-.67.62-.96.29-.29.57-.47.96-.62.29-.11.74-.25,1.55-.29.88-.04,1.14-.05,3.37-.05ZM14,5.65c-2.27,0-2.55,0-3.44.05-.89.04-1.49.18-2.03.39-.55.21-1.01.5-1.48.96-.46.46-.75.93-.96,1.48-.21.53-.35,1.14-.39,2.03-.04.89-.05,1.17-.05,3.44s0,2.55.05,3.44c.04.89.18,1.49.39,2.03.21.55.5,1.01.96,1.48.46.46.93.75,1.48.96.53.21,1.14.35,2.03.39.89.04,1.17.05,3.44.05s2.55,0,3.44-.05c.89-.04,1.49-.18,2.03-.39.55-.21,1.01-.5,1.48-.96.46-.46.75-.93.96-1.48.21-.53.35-1.14.39-2.03.04-.89.05-1.17.05-3.44s0-2.55-.05-3.44c-.04-.89-.18-1.49-.39-2.03-.21-.55-.5-1.01-.96-1.48-.46-.46-.93-.75-1.48-.96-.53-.21-1.14-.35-2.03-.39-.89-.04-1.17-.05-3.44-.05ZM14,9.71c-2.37,0-4.29,1.92-4.29,4.29s1.92,4.29,4.29,4.29,4.29-1.92,4.29-4.29-1.92-4.29-4.29-4.29ZM14,16.78c-1.54,0-2.78-1.25-2.78-2.78s1.25-2.78,2.78-2.78,2.78,1.25,2.78,2.78-1.25,2.78-2.78,2.78ZM18.45,8.54c-.55,0-1,.45-1,1s.45,1,1,1,1-.45,1-1-.45-1-1-1Z"/>
</svg>