<?xml version="1.0" encoding="UTF-8"?>
<svg id="Layer_1" data-name="Layer 1" xmlns="http://www.w3.org/2000/svg" viewBox="0 0 28 28">
  <defs>
    <style>
      .cls-1 {
        fill: #0966c2;
      }

      .cls-1, .cls-2 {
        stroke-width: 0px;
      }

      .cls-2 {
        fill: #fff;
      }
    </style>
  </defs>
  <circle class="cls-1" cx="14" cy="14" r="14"/>
  <g>
    <rect class="cls-2" x="7.47" y="11.78" width="2.74" height="8.99"/>
    <path class="cls-2" d="M10.44,8.85c.01-.89-.7-1.61-1.58-1.62-.89-.01-1.61.7-1.62,1.58-.01.89.7,1.61,1.58,1.62h.02c.86.02,1.58-.66,1.6-1.52,0,0,0,0,0,0v-.06Z"/>
    <path class="cls-2" d="M20.76,15.39c0-2.74-1.81-3.8-3.38-3.8s-2.74.91-2.99,1.47h-.04v-1.27h-2.58v8.99h2.74v-4.69c0-1.44.98-2.08,1.94-2.08.78,0,1.58.6,1.58,2.05v4.73h2.74v-5.39Z"/>
  </g>
</svg>