<?xml version="1.0" encoding="UTF-8"?>
<svg id="Layer_1" data-name="Layer 1" xmlns="http://www.w3.org/2000/svg" viewBox="0 0 28 28">
  <defs>
    <style>
      .cls-1 {
        fill: red;
      }

      .cls-1, .cls-2 {
        stroke-width: 0px;
      }

      .cls-2 {
        fill: #fff;
      }
    </style>
  </defs>
  <circle class="cls-1" cx="14" cy="14" r="14"/>
  <path class="cls-2" d="M23.44,9.26c-.23-.85-.89-1.51-1.74-1.74-1.54-.41-7.7-.41-7.7-.41,0,0-6.16,0-7.7.41-.85.23-1.51.89-1.74,1.74-.41,1.54-.41,4.74-.41,4.74,0,0,0,3.2.41,4.74.23.85.89,1.51,1.74,1.74,1.54.41,7.7.41,7.7.41,0,0,6.16,0,7.7-.41.85-.23,1.51-.89,1.74-1.74.41-1.54.41-4.74.41-4.74,0,0,0-3.2-.41-4.74ZM12.03,16.95v-5.91l5.12,2.95-5.12,2.95Z"/>
</svg>